HIERARCHY
ROOT root
{
	OFFSET	0	13.1	24.9
	CHANNELS 6  Xposition Yposition Zposition Xrotation Yrotation Zrotation
	JOINT spine_1
	{
		OFFSET	0	9.99999	0
		CHANNELS 3  Xrotation Yrotation Zrotation
		JOINT spine_2
		{
			OFFSET	0	112	-10
			CHANNELS 3  Xrotation Yrotation Zrotation
			JOINT spine_3
			{
				OFFSET	0	206.5	19.3
				CHANNELS 3  Xrotation Yrotation Zrotation
				JOINT spine_4
				{
					OFFSET	0	110.4	14.6
					CHANNELS 3  Xrotation Yrotation Zrotation
					JOINT neck_1
					{
						OFFSET	0	71.8	-50.3
						CHANNELS 3  Xrotation Yrotation Zrotation
						JOINT neck_2
						{
							OFFSET	0	86.2	-25.8
							CHANNELS 3  Xrotation Yrotation Zrotation
							JOINT head_ee
							{
								OFFSET	0	179.8	-8.7
								CHANNELS 3  Xrotation Yrotation Zrotation
								End Site
								{
									OFFSET	1	0	0
								}
							}
						}
					}
					JOINT left_clavicle
					{
						OFFSET	-43.2	22.4	-70.8
						CHANNELS 3  Xrotation Yrotation Zrotation
						JOINT left_shoulder
						{
							OFFSET	-93.9	-5.79999	48.7
							CHANNELS 3  Xrotation Yrotation Zrotation
							JOINT left_elbow
							{
								OFFSET	-291.4	-30.8	15.2
								CHANNELS 3  Xrotation Yrotation Zrotation
								JOINT left_lowarm_twist
								{
									OFFSET	-110.7	-3.89999	13.6
									CHANNELS 3  Xrotation Yrotation Zrotation
									JOINT left_hand
									{
										OFFSET	-110.7	-3.89999	13.6
										CHANNELS 3  Xrotation Yrotation Zrotation
										JOINT left_ee
										{
											OFFSET	-80.8	-5.10001	12.1
											CHANNELS 3  Xrotation Yrotation Zrotation
											End Site
											{
												OFFSET	1	0	0
											}
										}
									}
								}
							}
						}
					}
					JOINT right_clavicle
					{
						OFFSET	43.2	22.4	-70.8
						CHANNELS 3  Xrotation Yrotation Zrotation
						JOINT right_shoulder
						{
							OFFSET	93.9	-5.79999	48.7
							CHANNELS 3  Xrotation Yrotation Zrotation
							JOINT right_elbow
							{
								OFFSET	291.4	-30.8	15.2
								CHANNELS 3  Xrotation Yrotation Zrotation
								JOINT right_lowarm_twist
								{
									OFFSET	110.7	-3.89999	13.6
									CHANNELS 3  Xrotation Yrotation Zrotation
									JOINT right_hand
									{
										OFFSET	110.7	-3.89999	13.6
										CHANNELS 3  Xrotation Yrotation Zrotation
										JOINT right_ee
										{
											OFFSET	80.8	-5.10001	12.1
											CHANNELS 3  Xrotation Yrotation Zrotation
											End Site
											{
												OFFSET	1	0	0
											}
										}
									}
								}
							}
						}
					}
				}
			}
		}
	}
	JOINT left_hip
	{
		OFFSET	-82.8	-127.5	0.300001
		CHANNELS 3  Xrotation Yrotation Zrotation
		JOINT left_knee
		{
			OFFSET	-28.2	-396.7	2.2
			CHANNELS 3  Xrotation Yrotation Zrotation
			JOINT left_ankle
			{
				OFFSET	-11.7	-411.3	35.4
				CHANNELS 3  Xrotation Yrotation Zrotation
				JOINT left_toes
				{
					OFFSET	0	-60	-88.6
					CHANNELS 3  Xrotation Yrotation Zrotation
					JOINT left_foot_ee
					{
						OFFSET	-22.5	-16.5	-42.2
						CHANNELS 3  Xrotation Yrotation Zrotation
						End Site
						{
							OFFSET	1	0	0
						}
					}
				}
			}
		}
	}
	JOINT right_hip
	{
		OFFSET	82.8	-127.5	0.300001
		CHANNELS 3  Xrotation Yrotation Zrotation
		JOINT right_knee
		{
			OFFSET	28.2	-396.7	2.2
			CHANNELS 3  Xrotation Yrotation Zrotation
			JOINT right_ankle
			{
				OFFSET	11.7	-411.3	35.4
				CHANNELS 3  Xrotation Yrotation Zrotation
				JOINT right_toes
				{
					OFFSET	0	-60	-88.6
					CHANNELS 3  Xrotation Yrotation Zrotation
					JOINT right_foot_ee
					{
						OFFSET	22.5	-16.5	-42.2
						CHANNELS 3  Xrotation Yrotation Zrotation
						End Site
						{
							OFFSET	1	0	0
						}
					}
				}
			}
		}
	}
}
MOTION
Frames: 9
Frame Time: 0.02
1372.05 701.618 -1475.22 -18.4434202483 9.73777659016 2.35318473715 4.96735 0.604589 2.76182 4.9715 0.427692 2.79466 4.98879 0.0770608 2.82612 4.97802 0.522253 2.77855 -4.15667 -0.502605 -6.8477 -4.00813 4.31681 -7.12921 -0.0 0.0 -0.0 -0.993812 14.0044 0.0330292 17.7015 -3.77474 70.8436 2.08085 -45.8631 0.880414 78.0014 -3.61011 -8.49312 -6.4697 17.9419 -34.1976 -0.0 0.0 -0.0 9.26177 18.3688 -17.8703 -25.6458 39.3138 -79.6521 0.289091 8.14993 -0.0205954 -53.202 4.45148 -4.8398 -7.04354 -28.8738 28.0318 0.0 0.0 0.0 6.01589 7.21844 11.5193 -11.6941 0.302142 1.7661 42.4442 20.2191 -5.2537 12.466 -0.0 -0.0 -0.0 0.0 -0.0 59.4011 21.1989 -13.3307 -16.8851 -0.319718 -2.5621 -19.2146 -11.0615 -2.89019 -22.8614 0.0 0.0 0.0 0.0 0.0 
1362.42678399 702.561 -1497.4655186 -18.6343987452 10.7403944492 2.40907985992 5.01135 0.526525 2.8484 5.01579 0.344284 2.8761 5.0292 -0.0138864 2.89658 5.01777 0.443559 2.86248 -3.54786 -0.512648 -7.85645 -3.34817 5.14198 -8.22093 -0.0 0.0 -0.0 -0.927838 13.6412 0.090039 15.8707 -4.20068 70.4482 1.96328 -44.198 0.797232 77.643 -3.56958 -8.47136 -6.44451 17.6712 -34.2438 -0.0 0.0 -0.0 9.31372 19.9583 -17.8751 -25.1379 38.6599 -79.5735 0.300386 8.46383 -0.0222272 -52.1063 4.32058 -4.7885 -7.00565 -28.6329 28.0259 0.0 0.0 0.0 5.58294 7.27765 11.8598 -12.6719 0.310966 1.91588 41.8835 21.2245 -5.23036 13.8343 -0.0 -0.0 -0.0 0.0 -0.0 59.0668 21.3888 -13.8031 -16.2545 -0.321432 -2.46535 -19.7673 -10.7403 -2.97333 -22.4842 0.0 0.0 0.0 0.0 0.0 
1357.82830608 706.506 -1516.49674209 -19.0371801355 10.3067099439 2.13279854213 5.10713 0.473112 2.87609 5.11169 0.289219 2.90034 5.12225 -0.0668614 2.91394 5.11062 0.393985 2.88798 -2.71715 -0.188159 -9.25214 -2.42502 6.92228 -9.71375 -0.0 0.0 -0.0 -0.0021533 13.4362 1.58108 14.8858 -4.17043 69.1397 1.86647 -42.7519 0.730612 76.988 -3.49586 -8.43094 -6.63249 17.6082 -35.7439 -0.0 0.0 -0.0 9.79677 23.3724 -18.6702 -23.9884 37.8237 -80.9742 0.313455 8.8264 -0.0241917 -50.9793 4.18698 -4.73314 -7.24628 -29.2591 28.9398 0.0 0.0 0.0 5.59459 7.36097 11.9027 -13.2609 0.315047 2.00616 41.0021 23.794 -5.22429 14.641 -0.0 -0.0 -0.0 0.0 -0.0 57.8726 21.7654 -14.0371 -16.0547 -0.321753 -2.4347 -17.6965 -9.20178 -2.65773 -21.7117 0.0 0.0 0.0 0.0 0.0 
1358.25180512 706.506 -1516.6402346 -19.0033565561 9.75191922258 1.93858229401 5.10713 0.473112 2.87609 5.11169 0.289219 2.90034 5.12225 -0.0668614 2.91394 5.11062 0.393985 2.88798 -2.71715 -0.188159 -9.25214 -2.42502 6.92228 -9.71375 -0.0 0.0 -0.0 -0.0021533 13.4362 1.58108 14.8858 -4.17043 69.1397 1.86647 -42.7519 0.730612 76.988 -3.49586 -8.43094 -6.63249 17.6082 -35.7439 -0.0 0.0 -0.0 9.79677 23.3724 -18.6702 -23.9884 37.8237 -80.9742 0.313455 8.8264 -0.0241917 -50.9793 4.18698 -4.73314 -7.24628 -29.2591 28.9398 0.0 0.0 0.0 5.59459 7.36097 11.9027 -13.2609 0.315047 2.00616 41.0021 23.794 -5.22429 14.641 -0.0 -0.0 -0.0 0.0 -0.0 57.8726 21.7654 -14.0371 -16.0547 -0.321753 -2.4347 -17.6965 -9.20178 -2.65773 -21.7117 0.0 0.0 0.0 0.0 0.0 
1323.50509121 719.93 -1571.56071068 -15.7517984537 13.6550749571 2.37031644855 3.98849 0.614871 2.64708 3.99228 0.445247 2.68081 4.01093 0.0622594 2.71679 4.00097 0.49039 2.67292 -5.46888 0.414111 -12.0956 -4.99859 9.80452 -12.2687 -0.0 0.0 -0.0 -0.564297 19.9466 1.49723 6.41724 -18.3659 68.1528 2.54839 -51.6073 1.2323 77.8021 -3.58756 -8.48105 -7.50846 17.4405 -43.1319 -0.0 0.0 -0.0 11.6835 28.3834 -22.3744 -23.1279 35.1354 -79.7211 0.185734 5.25696 -0.00852666 -48.2127 3.86382 -4.58618 -7.7395 -28.5203 32.9628 0.0 0.0 0.0 7.63446 7.60789 10.572 -27.0241 0.146497 4.10626 37.611 26.7295 -4.98829 16.9764 -0.0 -0.0 -0.0 0.0 -0.0 53.356 24.2888 -12.943 -25.837 -0.180878 -3.92733 0.481735 -5.79018 0.0704893 -17.7418 0.0 0.0 0.0 0.0 0.0 
1325.35778165 719.93 -1572.47213339 -15.682519303 12.5994621493 2.06528987475 3.98849 0.614871 2.64708 3.99228 0.445247 2.68081 4.01093 0.0622594 2.71679 4.00097 0.49039 2.67292 -5.46888 0.414111 -12.0956 -4.99859 9.80452 -12.2687 -0.0 0.0 -0.0 -0.564297 19.9466 1.49723 6.41724 -18.3659 68.1528 2.54839 -51.6073 1.2323 77.8021 -3.58756 -8.48105 -7.50846 17.4405 -43.1319 -0.0 0.0 -0.0 11.6835 28.3834 -22.3744 -23.1279 35.1354 -79.7211 0.185734 5.25696 -0.00852666 -48.2127 3.86382 -4.58618 -7.7395 -28.5203 32.9628 0.0 0.0 0.0 7.63446 7.60789 10.572 -27.0241 0.146497 4.10626 37.611 26.7295 -4.98829 16.9764 -0.0 -0.0 -0.0 0.0 -0.0 53.356 24.2888 -12.943 -25.837 -0.180878 -3.92733 0.481735 -5.79018 0.0704893 -17.7418 0.0 0.0 0.0 0.0 0.0 
1275.95973541 711.334 -1634.72834295 -16.61163482 17.3965233482 1.99475444426 4.77066 0.589089 2.95421 4.77543 0.399997 2.98567 4.79245 0.0154669 3.01228 4.78012 0.490793 2.9721 -3.5606 0.267522 -11.3067 -3.12326 9.24063 -11.7168 -0.0 0.0 -0.0 -2.7272 21.3704 -1.41741 -3.23095 -26.4288 68.7024 2.43567 -50.3402 1.14472 76.2372 -3.41194 -8.38359 -7.51496 15.4003 -45.3646 -0.0 0.0 -0.0 10.2091 27.6705 -19.1448 -19.6796 38.3325 -76.2542 0.510571 14.1939 -0.0635678 -49.3451 3.99523 -4.64821 -7.77397 -28.7481 32.9479 0.0 0.0 0.0 11.7437 9.6462 11.4169 -36.4236 -0.255056 5.49111 35.366 24.4429 -4.68493 18.3564 -0.0 -0.0 -0.0 0.0 -0.0 47.2929 26.484 -9.96876 -25.2187 -0.197312 -3.83387 12.1368 -1.07895 1.72363 -15.0947 0.0 0.0 0.0 0.0 0.0 
1280.50088507 711.334 -1637.37736177 -16.4741299406 15.8458224662 1.5140861633 4.77066 0.589089 2.95421 4.77543 0.399997 2.98567 4.79245 0.0154669 3.01228 4.78012 0.490793 2.9721 -3.5606 0.267522 -11.3067 -3.12326 9.24063 -11.7168 -0.0 0.0 -0.0 -2.7272 21.3704 -1.41741 -3.23095 -26.4288 68.7024 2.43567 -50.3402 1.14472 76.2372 -3.41194 -8.38359 -7.51496 15.4003 -45.3646 -0.0 0.0 -0.0 10.2091 27.6705 -19.1448 -19.6796 38.3325 -76.2542 0.510571 14.1939 -0.0635678 -49.3451 3.99523 -4.64821 -7.77397 -28.7481 32.9479 0.0 0.0 0.0 11.7437 9.6462 11.4169 -36.4236 -0.255056 5.49111 35.366 24.4429 -4.68493 18.3564 -0.0 -0.0 -0.0 0.0 -0.0 47.2929 26.484 -9.96876 -25.2187 -0.197312 -3.83387 12.1368 -1.07895 1.72363 -15.0947 0.0 0.0 0.0 0.0 0.0 
1286.43395015 711.334 -1640.58669081 -16.3187616399 13.8546268559 0.907969754533 4.77066 0.589089 2.95421 4.77543 0.399997 2.98567 4.79245 0.0154669 3.01228 4.78012 0.490793 2.9721 -3.5606 0.267522 -11.3067 -3.12326 9.24063 -11.7168 -0.0 0.0 -0.0 -2.7272 21.3704 -1.41741 -3.23095 -26.4288 68.7024 2.43567 -50.3402 1.14472 76.2372 -3.41194 -8.38359 -7.51496 15.4003 -45.3646 -0.0 0.0 -0.0 10.2091 27.6705 -19.1448 -19.6796 38.3325 -76.2542 0.510571 14.1939 -0.0635678 -49.3451 3.99523 -4.64821 -7.77397 -28.7481 32.9479 0.0 0.0 0.0 11.7437 9.6462 11.4169 -36.4236 -0.255056 5.49111 35.366 24.4429 -4.68493 18.3564 -0.0 -0.0 -0.0 0.0 -0.0 47.2929 26.484 -9.96876 -25.2187 -0.197312 -3.83387 12.1368 -1.07895 1.72363 -15.0947 0.0 0.0 0.0 0.0 0.0 
